<svg width="83" height="83" viewBox="0 0 83 83" fill="none" xmlns="http://www.w3.org/2000/svg">
<g clip-path="url(#clip0_20_1040)">
<path d="M47.3748 41.8827C33.4557 41.8827 25.1045 53.0481 25.1045 58.6314C25.1045 64.2147 27.8879 68.4018 33.4557 68.4018C39.0236 68.4018 41.808 69.7968 41.808 73.984C41.808 79.5662 45.9831 83.7534 51.551 83.7534C69.6462 83.7534 77.9963 73.984 77.9963 64.2147C77.9952 47.4659 64.0739 41.8827 47.3748 41.8827ZM43.895 47.4659C44.3526 47.4665 44.8055 47.5572 45.228 47.7328C45.6505 47.9085 46.0343 48.1656 46.3574 48.4895C46.6805 48.8135 46.9367 49.1979 47.1113 49.6208C47.2858 50.0438 47.3754 50.497 47.3748 50.9545C47.3748 52.8828 45.8167 54.4442 43.895 54.4442C41.9733 54.4442 40.4153 52.8817 40.4153 50.9545C40.4147 50.497 40.5042 50.0438 40.6788 49.6208C40.8533 49.1979 41.1095 48.8135 41.4326 48.4895C41.7558 48.1656 42.1395 47.9085 42.562 47.7328C42.9845 47.5572 43.4375 47.4665 43.895 47.4659ZM55.0285 47.4659C55.4861 47.4665 55.939 47.5572 56.3615 47.7328C56.784 47.9085 57.1678 48.1656 57.4909 48.4895C57.814 48.8135 58.0702 49.1979 58.2448 49.6208C58.4193 50.0438 58.5089 50.497 58.5083 50.9545C58.509 51.4122 58.4196 51.8655 58.2451 52.2885C58.0706 52.7116 57.8144 53.0961 57.4913 53.4202C57.1682 53.7443 56.7843 54.0015 56.3618 54.1772C55.9392 54.3529 55.4862 54.4436 55.0285 54.4442C54.571 54.4435 54.118 54.3526 53.6956 54.1769C53.2732 54.0011 52.8895 53.7439 52.5664 53.4198C52.2434 53.0958 51.9874 52.7113 51.813 52.2883C51.6385 51.8653 51.5491 51.4121 51.5499 50.9545C51.5487 50.0307 51.9145 49.1441 52.5668 48.4899C53.2192 47.8357 54.1046 47.4674 55.0285 47.4659ZM66.1642 53.0481C66.622 53.0485 67.0751 53.1392 67.4978 53.3148C67.9205 53.4904 68.3045 53.7476 68.6277 54.0717C68.951 54.3958 69.2072 54.7804 69.3818 55.2035C69.5563 55.6267 69.6458 56.0801 69.6451 56.5378C69.6458 56.9955 69.5563 57.4488 69.3817 57.8719C69.2072 58.295 68.9509 58.6795 68.6277 59.0035C68.3044 59.3275 67.9204 59.5846 67.4977 59.7601C67.075 59.9356 66.6219 60.0261 66.1642 60.0264C65.7067 60.0259 65.2537 59.9353 64.8312 59.7598C64.4087 59.5842 64.025 59.327 63.7019 59.003C63.3788 58.679 63.1228 58.2946 62.9484 57.8716C62.774 57.4486 62.6847 56.9953 62.6856 56.5378C62.6847 56.0802 62.774 55.6269 62.9484 55.2039C63.1227 54.7808 63.3788 54.3963 63.7018 54.0722C64.0249 53.7481 64.4086 53.4909 64.8311 53.3151C65.2536 53.1394 65.7066 53.0487 66.1642 53.0481ZM34.1521 55.8403C34.6096 55.8407 35.0624 55.9313 35.4849 56.1068C35.9073 56.2824 36.291 56.5394 36.614 56.8633C36.9371 57.1871 37.1932 57.5715 37.3676 57.9944C37.5421 58.4172 37.6315 58.8703 37.6308 59.3278C37.6308 61.2561 36.0727 62.8175 34.1521 62.8175C32.2315 62.8175 30.6723 61.255 30.6723 59.3278C30.6715 58.4039 31.0376 57.5175 31.6901 56.8635C32.3427 56.2095 33.2282 55.8415 34.1521 55.8403ZM51.5499 69.7968C53.8561 69.7968 55.7249 71.6701 55.7249 73.9851C55.7249 76.2969 53.8561 78.1712 51.5499 78.1712C49.2436 78.1712 47.3748 76.2969 47.3748 73.9851C47.3738 73.4359 47.481 72.8919 47.6903 72.3842C47.8996 71.8765 48.2069 71.4149 48.5946 71.026C48.9823 70.637 49.4428 70.3283 49.9499 70.1174C50.457 69.9065 51.0007 69.7976 51.5499 69.7968Z" fill="#FF7F8C"/>
</g>
<defs>
<clipPath id="clip0_20_1040">
<rect width="83" height="83" fill="white"/>
</clipPath>
</defs>
</svg>
