<svg width="110" height="112" viewBox="0 0 110 112" fill="none" xmlns="http://www.w3.org/2000/svg">
<path d="M96.68 10.0625C87.5277 10.0625 77.2151 15.225 66.1292 25.3312C58.3519 32.4187 51.6917 40.5125 47.0941 46.6375C43.2377 45.4424 39.1601 45.1831 35.1876 45.8803C31.2151 46.5775 27.4581 48.2119 24.2173 50.6527C20.9765 53.0935 18.3418 56.2729 16.5243 59.9364C14.7067 63.5998 13.7567 67.6456 13.7503 71.75C13.7503 85.4 6.78937 91.4812 6.44562 91.7875C5.88582 92.228 5.47943 92.8395 5.2861 93.5325C5.09276 94.2254 5.12266 94.9632 5.3714 95.6375C5.59117 96.3296 6.02236 96.932 6.60209 97.357C7.18181 97.782 7.87974 98.0073 8.59406 98H39.5316C43.5626 97.9935 47.5362 97.0262 51.1343 95.1756C54.7323 93.325 57.8549 90.6424 60.2521 87.3427C62.6493 84.043 64.2545 80.2177 64.9393 76.173C65.6241 72.1283 65.3694 67.9765 64.1956 64.05C70.2112 59.3687 78.1605 52.5875 85.1214 44.6687C95.0472 33.3812 100.118 22.8812 100.118 13.5625C100.118 12.6342 99.7553 11.744 99.1107 11.0876C98.466 10.4312 97.5917 10.0625 96.68 10.0625ZM53.4534 49.7C54.6995 48.0812 56.1605 46.2437 57.8363 44.2312C61.2756 46.5956 64.2368 49.6106 66.5589 53.1125C64.5823 54.8187 62.7777 56.3062 61.1878 57.575C59.1989 54.4118 56.5602 51.7251 53.4534 49.7ZM71.7581 48.4312C69.1872 44.7633 66.0364 41.5551 62.4339 38.9375C70.8558 29.6625 82.1995 19.5125 92.8558 17.4563C90.8363 28.3062 80.8675 39.8562 71.7581 48.4312Z" fill="#FF7F8C"/>
</svg>
