<svg width="34" height="33" viewBox="0 0 34 33" fill="none" xmlns="http://www.w3.org/2000/svg">
<path d="M14.167 11.6875V21.3125C14.167 21.8763 14.8329 22.2063 15.3004 21.8625L21.9162 17.05C22.2987 16.775 22.2987 16.225 21.9162 15.95L15.3004 11.1375C15.1951 11.0609 15.07 11.0142 14.939 11.0028C14.808 10.9913 14.6763 11.0155 14.5586 11.0726C14.4409 11.1297 14.342 11.2175 14.2728 11.3261C14.2037 11.4347 14.167 11.5598 14.167 11.6875ZM15.5837 4.44125C15.5837 3.56125 14.7479 2.8875 13.8695 3.08C12.2829 3.4375 10.7812 4.0425 9.44954 4.8675C8.6987 5.335 8.58537 6.38 9.22287 6.99875C9.6762 7.43875 10.3987 7.54875 10.937 7.21875C12.0279 6.545 13.232 6.05 14.5354 5.775C15.1587 5.6375 15.5837 5.07375 15.5837 4.44125ZM7.22537 8.95125C6.5737 8.3325 5.5112 8.42875 5.02953 9.17125C4.17953 10.4638 3.5562 11.9213 3.18787 13.4613C2.98953 14.3138 3.66953 15.125 4.5762 15.125C5.2137 15.125 5.8087 14.7125 5.9362 14.1075C6.21954 12.8563 6.7437 11.6738 7.4237 10.6288C7.79204 10.0925 7.6787 9.39125 7.22537 8.95125ZM4.5762 17.875C3.66953 17.875 2.97537 18.6863 3.1737 19.5388C3.54203 21.0788 4.16537 22.5225 5.01537 23.8288C5.49704 24.5713 6.5737 24.6675 7.2112 24.0488C7.66454 23.6088 7.77787 22.9075 7.4237 22.385C6.72953 21.34 6.21954 20.1713 5.9362 18.9063C5.8087 18.2875 5.22787 17.875 4.5762 17.875ZM9.44954 28.1188C10.7954 28.9438 12.2829 29.5488 13.8695 29.9063C14.7479 30.0988 15.5837 29.425 15.5837 28.5588C15.5837 27.94 15.1587 27.3625 14.5354 27.2388C13.2638 26.9619 12.0511 26.4734 10.9512 25.795C10.6826 25.6361 10.366 25.5713 10.0541 25.6113C9.74223 25.6513 9.45389 25.7938 9.23704 26.015C9.08412 26.1551 8.96628 26.3272 8.89254 26.5183C8.8188 26.7094 8.79113 26.9144 8.81164 27.1175C8.83216 27.3206 8.90031 27.5164 9.01088 27.6899C9.12146 27.8635 9.27151 28.0102 9.44954 28.1188ZM31.167 16.5C31.167 23.0038 26.492 28.4763 20.2162 29.8925C19.3379 30.0988 18.4879 29.425 18.4879 28.545C18.4879 27.9125 18.927 27.3625 19.5504 27.2113C24.5795 26.0838 28.3337 21.7113 28.3337 16.5C28.3337 11.2888 24.5795 6.91625 19.5504 5.78875C18.927 5.65125 18.4879 5.0875 18.4879 4.455C18.4879 3.575 19.3379 2.90125 20.2162 3.1075C26.492 4.52375 31.167 9.99625 31.167 16.5Z" fill="#6A86EB"/>
</svg>
