<svg width="101" height="99" viewBox="0 0 101 99" fill="none" xmlns="http://www.w3.org/2000/svg">
<path d="M42.0833 86.6511H23.1458C16.7632 86.6511 11.3106 84.4855 6.78804 80.1542C2.26268 75.823 0 70.5292 0 64.273C0 58.9105 1.64826 54.1324 4.94479 49.9386C8.24132 45.7449 12.5549 43.0636 17.8854 41.8949C19.6389 35.5699 23.1458 30.448 28.4063 26.5292C33.6667 22.6105 39.6285 20.6511 46.2917 20.6511C54.4979 20.6511 61.4585 23.452 67.1734 29.0537C72.8911 34.6582 75.75 41.4824 75.75 49.5261C80.5896 50.0761 84.6057 52.1208 87.7985 55.66C90.9884 59.202 92.5833 63.3449 92.5833 68.0886C92.5833 73.2449 90.7429 77.6284 87.062 81.2391C83.3783 84.8471 78.9062 86.6511 73.6458 86.6511H50.5V57.1574L57.2333 63.5511L63.125 57.7761L46.2917 41.2761L29.4583 57.7761L35.35 63.5511L42.0833 57.1574V86.6511Z" fill="#6E56FF"/>
</svg>
